<svg width="50" height="30" viewBox="0 0 60 40" fill="none" xmlns="http://www.w3.org/2000/svg">
<path d="M28.7778 30.0002V27.7779C28.7778 26.5992 28.3095 25.4687 27.476 24.6352C26.6425 23.8017 25.5121 23.3335 24.3333 23.3335H15.4444C14.2657 23.3335 13.1352 23.8017 12.3017 24.6352C11.4683 25.4687 11 26.5992 11 27.7779V30.0002" fill="#C5C5C5"/>
<path d="M28.7778 30.0002V27.7779C28.7778 26.5992 28.3095 25.4687 27.476 24.6352C26.6425 23.8017 25.5121 23.3335 24.3333 23.3335H15.4444C14.2657 23.3335 13.1352 23.8017 12.3017 24.6352C11.4683 25.4687 11 26.5992 11 27.7779V30.0002H28.7778Z" stroke="#C5C5C5" stroke-width="2" stroke-linecap="round" strokeLinejoin="round"/>
<path d="M19.8889 18.8889C22.3435 18.8889 24.3333 16.899 24.3333 14.4444C24.3333 11.9898 22.3435 10 19.8889 10C17.4343 10 15.4445 11.9898 15.4445 14.4444C15.4445 16.899 17.4343 18.8889 19.8889 18.8889Z" fill="#C5C5C5" stroke="#C5C5C5" stroke-width="2" stroke-linecap="round" strokeLinejoin="round"/>
<path d="M36.3333 16.6665L43 23.3332L49.6667 16.6665" stroke="#C5C5C5" stroke-width="2" stroke-linecap="round" strokeLinejoin="round"/>
<rect x="0.5" y="0.5" width="59" height="39" rx="15.5" stroke="#C5C5C5"/>
</svg>