<svg xmlns="http://www.w3.org/2000/svg" width="30" height="30" fill="none"><path fill="#C5C5C5" fill-rule="evenodd" d="M8.813 3.813A8.75 8.75 0 0 1 23.75 10c0 4.19.896 6.793 1.723 8.308.414.76.818 1.259 1.099 1.555a3.775 3.775 0 0 0 .386.357 1.25 1.25 0 0 1-.708 2.28H3.75a1.25 1.25 0 0 1-.704-2.283 3.77 3.77 0 0 0 .383-.354c.28-.296.684-.795 1.099-1.555C5.354 16.793 6.25 14.19 6.25 10a8.75 8.75 0 0 1 2.563-6.187ZM3.055 20.21ZM6.437 20h17.126c-.095-.156-.19-.32-.285-.495-1.05-1.923-2.028-4.946-2.028-9.505a6.25 6.25 0 0 0-12.5 0c0 4.56-.979 7.582-2.028 9.505-.095.174-.19.34-.285.495ZM12.21 25.169a1.25 1.25 0 0 1 1.709.454 1.25 1.25 0 0 0 2.162 0 1.25 1.25 0 1 1 2.163 1.254 3.75 3.75 0 0 1-6.488 0 1.25 1.25 0 0 1 .454-1.708Z" clip-rule="evenodd"/></svg>