<svg width="36" height="94" viewBox="0 0 36 94" fill="none" xmlns="http://www.w3.org/2000/svg">
<path d="M3.82996 63.34L15.14 0L35.38 3.39L24.0299 66.94L3.82996 63.34Z" fill="#007FFF"/>
<path d="M0.760467 81.5902C0.977396 80.2935 1.44789 79.0524 2.14499 77.9377C2.84209 76.8231 3.75217 75.8569 4.82309 75.0943C5.89401 74.3318 7.10473 73.7879 8.38608 73.4937C9.66742 73.1996 10.9942 73.161 12.2905 73.3802L12.7805 73.4602C14.078 73.6759 15.3202 74.1456 16.436 74.8422C17.5518 75.5388 18.5192 76.4486 19.2827 77.5197C20.0463 78.5907 20.5911 79.8019 20.8858 81.0838C21.1806 82.3657 21.2196 83.6932 21.0005 84.9902C20.7838 86.2898 20.3123 87.5338 19.6133 88.6506C18.9142 89.7675 18.0013 90.7352 16.9271 91.4981C15.8529 92.261 14.6385 92.8042 13.3537 93.0963C12.0689 93.3883 10.739 93.4237 9.44052 93.2002L8.95047 93.1202C7.65561 92.9009 6.41666 92.4287 5.30429 91.7306C4.19192 91.0325 3.22796 90.1222 2.46744 89.0515C1.70692 87.9808 1.16473 86.7708 0.871856 85.4906C0.578983 84.2104 0.541102 82.885 0.760467 81.5902Z" fill="#007FFF"/>
</svg>
