<svg width="42" height="42" viewBox="0 0 42 42" fill="none" xmlns="http://www.w3.org/2000/svg">
<path fill-rule="evenodd" clip-rule="evenodd" d="M13 13C12.7348 13 12.4804 13.1054 12.2929 13.2929C12.1054 13.4804 12 13.7348 12 14V28C12 28.2652 12.1054 28.5196 12.2929 28.7071C12.4804 28.8946 12.7348 29 13 29H29C29.2652 29 29.5196 28.8946 29.7071 28.7071C29.8946 28.5196 30 28.2652 30 28V17C30 16.7348 29.8946 16.4804 29.7071 16.2929C29.5196 16.1054 29.2652 16 29 16H20C19.6656 16 19.3534 15.8329 19.1679 15.5547L17.4648 13H13ZM10.8787 11.8787C11.4413 11.3161 12.2044 11 13 11H18C18.3344 11 18.6466 11.1671 18.8321 11.4453L20.5352 14H29C29.7957 14 30.5587 14.3161 31.1213 14.8787C31.6839 15.4413 32 16.2043 32 17V28C32 28.7957 31.6839 29.5587 31.1213 30.1213C30.5587 30.6839 29.7957 31 29 31H13C12.2044 31 11.4413 30.6839 10.8787 30.1213C10.3161 29.5587 10 28.7957 10 28V14C10 13.2044 10.3161 12.4413 10.8787 11.8787Z"/>
</svg>
