<svg width="25" height="25" viewBox="0 0 25 25" fill="none" xmlns="http://www.w3.org/2000/svg">
<path d="M6.25 3.125V6.25H3.125V3.125H6.25ZM7.8125 21.875V18.75C7.8125 17.8871 7.11294 17.1875 6.25 17.1875H3.125C2.26206 17.1875 1.5625 17.8871 1.5625 18.75V21.875C1.5625 22.7379 2.26206 23.4375 3.125 23.4375H6.25C7.11294 23.4375 7.8125 22.7379 7.8125 21.875ZM7.8125 14.0625V10.9375C7.8125 10.0746 7.11294 9.375 6.25 9.375H3.125C2.26206 9.375 1.5625 10.0746 1.5625 10.9375V14.0625C1.5625 14.9254 2.26206 15.625 3.125 15.625H6.25C7.11294 15.625 7.8125 14.9254 7.8125 14.0625ZM7.8125 6.25V3.125C7.8125 2.26206 7.11294 1.5625 6.25 1.5625H3.125C2.26206 1.5625 1.5625 2.26206 1.5625 3.125V6.25C1.5625 7.11294 2.26206 7.8125 3.125 7.8125H6.25C7.11294 7.8125 7.8125 7.11294 7.8125 6.25ZM15.625 21.875V18.75C15.625 17.8871 14.9254 17.1875 14.0625 17.1875H10.9375C10.0746 17.1875 9.375 17.8871 9.375 18.75V21.875C9.375 22.7379 10.0746 23.4375 10.9375 23.4375H14.0625C14.9254 23.4375 15.625 22.7379 15.625 21.875ZM15.625 14.0625V10.9375C15.625 10.0746 14.9254 9.375 14.0625 9.375H10.9375C10.0746 9.375 9.375 10.0746 9.375 10.9375V14.0625C9.375 14.9254 10.0746 15.625 10.9375 15.625H14.0625C14.9254 15.625 15.625 14.9254 15.625 14.0625ZM15.625 6.25V3.125C15.625 2.26206 14.9254 1.5625 14.0625 1.5625H10.9375C10.0746 1.5625 9.375 2.26206 9.375 3.125V6.25C9.375 7.11294 10.0746 7.8125 10.9375 7.8125H14.0625C14.9254 7.8125 15.625 7.11294 15.625 6.25ZM14.0625 3.125V6.25H10.9375V3.125H14.0625ZM21.875 3.125V6.25H18.75V3.125H21.875ZM6.25 10.9375V14.0625H3.125V10.9375H6.25ZM14.0625 10.9375V14.0625H10.9375V10.9375H14.0625ZM21.875 10.9375H18.75V14.0625H21.875V10.9375ZM6.25 18.75V21.875H3.125V18.75H6.25ZM14.0625 18.75V21.875H10.9375V18.75H14.0625ZM21.875 18.75V21.875H18.75V18.75H21.875ZM18.75 1.5625C17.8871 1.5625 17.1875 2.26206 17.1875 3.125V6.25C17.1875 7.11294 17.8871 7.8125 18.75 7.8125H21.875C22.7379 7.8125 23.4375 7.11294 23.4375 6.25V3.125C23.4375 2.26206 22.7379 1.5625 21.875 1.5625H18.75ZM17.1875 10.9375C17.1875 10.0746 17.8871 9.375 18.75 9.375H21.875C22.7379 9.375 23.4375 10.0746 23.4375 10.9375V14.0625C23.4375 14.9254 22.7379 15.625 21.875 15.625H18.75C17.8871 15.625 17.1875 14.9254 17.1875 14.0625V10.9375ZM18.75 17.1875C17.8871 17.1875 17.1875 17.8871 17.1875 18.75V21.875C17.1875 22.7379 17.8871 23.4375 18.75 23.4375H21.875C22.7379 23.4375 23.4375 22.7379 23.4375 21.875V18.75C23.4375 17.8871 22.7379 17.1875 21.875 17.1875H18.75Z" />
</svg>
