<svg xmlns="http://www.w3.org/2000/svg" width="20" height="22" fill="none"><path fill="#C5C5C5" d="M18.778 21v-2.223a4.444 4.444 0 0 0-4.445-4.444H5.444A4.444 4.444 0 0 0 1 18.777V21"/><path fill="#C5C5C5" fill-rule="evenodd" d="M1.595 14.928a5.445 5.445 0 0 1 3.85-1.595h8.888a5.444 5.444 0 0 1 5.445 5.444V21a1 1 0 0 1-1 1H1a1 1 0 0 1-1-1v-2.223c0-1.444.574-2.828 1.595-3.85Zm3.85.405A3.444 3.444 0 0 0 2 18.777V20h15.778v-1.223a3.444 3.444 0 0 0-3.445-3.444H5.444Z" clip-rule="evenodd"/><path fill="#C5C5C5" d="M9.889 9.889a4.444 4.444 0 1 0 0-8.889 4.444 4.444 0 0 0 0 8.889Z"/><path fill="#C5C5C5" fill-rule="evenodd" d="M9.889 2a3.444 3.444 0 1 0 0 6.889 3.444 3.444 0 0 0 0-6.889ZM4.444 5.444a5.444 5.444 0 1 1 10.89 0 5.444 5.444 0 0 1-10.89 0Z" clip-rule="evenodd"/></svg>