<svg width="140" height="36" viewBox="0 0 140 36" fill="none" xmlns="http://www.w3.org/2000/svg">
<g clip-path="url(#clip0_573_4897)">
<path d="M24.9373 21.5624L35.7524 35.906H29.0914L21.2129 25.4228L16.4141 30.5172V35.9258H10.9707V10.6439H16.4141V22.7964L28.2664 10.5771H35.6224L24.9373 21.5624Z" fill="#007FFF"/>
<path d="M59.3766 35.7877H54.5407L44.3782 22.1094V35.7927H40.1152V15.9268H44.9511L55.1031 29.6892V15.9268H59.3766V35.7877Z" fill="#007FFF"/>
<path d="M119.27 24.5156L127.758 35.7877H122.53L116.344 27.55L112.577 31.5341V35.7803H108.309V15.9441H112.582V25.485L121.891 15.8896H127.655L119.27 24.5156Z" fill="#007FFF"/>
<path d="M73.7465 15.7061C67.3349 15.7061 62.9473 20.2935 62.9473 25.8455C62.9473 31.3975 67.3349 35.985 73.7465 35.985C80.1581 35.985 84.5431 31.4222 84.5431 25.8455C84.5431 20.2688 80.1555 15.7061 73.7465 15.7061ZM73.7465 32.5375C72.5454 32.5493 71.3668 32.2329 70.3563 31.6275C72.5262 31.0785 74.155 28.7983 74.155 26.0656C74.155 23.1326 72.2769 20.7189 69.8656 20.4122C70.9674 19.5949 72.3386 19.1581 73.7465 19.1757C77.7654 19.1757 80.2695 22.455 80.2695 25.8529C80.2695 29.2509 77.7654 32.5375 73.7465 32.5375Z" fill="#007FFF"/>
<path d="M97.2806 32.5378C96.1756 32.5478 95.0915 32.2574 94.161 31.7019C96.9012 31.3359 99.0234 28.9519 99.0234 26.0658C99.0234 22.9844 96.6094 20.4768 93.5933 20.3778C94.6258 19.5727 95.9346 19.1408 97.2806 19.1611C98.2084 19.1666 99.1213 19.3789 99.9432 19.7803C100.765 20.1817 101.472 20.7605 102.005 21.4685L104.732 18.664C103.772 17.7292 102.619 16.9845 101.343 16.4746C100.066 15.9647 98.6929 15.7 97.3044 15.6964C90.8928 15.6717 86.7891 20.2839 86.7891 25.8358C86.7891 31.3878 90.8928 35.9753 97.3044 35.9753C100.567 36.0272 102.846 34.8204 104.732 33.0076L101.814 30.359C101.306 31.0393 100.628 31.5934 99.8375 31.9732C99.0473 32.3529 98.1695 32.5468 97.2806 32.5378Z" fill="#007FFF"/>
<path d="M131.631 27.6486L134.631 11.9844L140 12.8227L136.989 28.5389L131.631 27.6486Z" fill="#007FFF"/>
<path d="M130.817 32.1616C130.874 31.841 130.999 31.534 131.184 31.2584C131.369 30.9827 131.61 30.7438 131.894 30.5552C132.178 30.3666 132.5 30.2321 132.839 30.1594C133.179 30.0866 133.531 30.0771 133.875 30.1313L134.005 30.1511C134.349 30.2044 134.679 30.3206 134.975 30.4928C135.271 30.6651 135.527 30.8901 135.73 31.155C135.933 31.4199 136.077 31.7194 136.155 32.0364C136.233 32.3534 136.244 32.6817 136.186 33.0025C136.128 33.3239 136.003 33.6315 135.818 33.9077C135.632 34.1839 135.39 34.4232 135.105 34.6119C134.82 34.8006 134.498 34.9349 134.157 35.0071C133.816 35.0794 133.464 35.0881 133.119 35.0328L132.989 35.0131C132.646 34.9588 132.317 34.8421 132.022 34.6694C131.727 34.4968 131.471 34.2716 131.269 34.0069C131.068 33.7421 130.924 33.4428 130.846 33.1262C130.768 32.8096 130.758 32.4819 130.817 32.1616Z" fill="#007FFF"/>
<path d="M22.0081 4.8475L17.8203 6.53613L18.6628 8.35198L22.8505 6.66335L22.0081 4.8475Z" fill="#007FFF"/>
<path d="M13.4574 0.00379078L12.8027 5.18359L14.9103 5.4151L15.565 0.235302L13.4574 0.00379078Z" fill="#007FFF"/>
<path d="M5.32524 1.49636L3.75586 2.82812L6.82719 5.97374L8.39657 4.64197L5.32524 1.49636Z" fill="#007FFF"/>
<path d="M0.54031 7.9354L0 9.84863L5.6488 11.2351L6.18911 9.32187L0.54031 7.9354Z" fill="#007FFF"/>
<path d="M5.69502 13.6119L0.541016 17.1299L1.79468 18.7262L6.94869 15.2083L5.69502 13.6119Z" fill="#007FFF"/>
</g>
<defs>
<clipPath id="clip0_573_4897">
<rect width="140" height="36" fill="white"/>
</clipPath>
</defs>
</svg>
