<svg width="200" height="52" viewBox="0 0 200 52" fill="none" xmlns="http://www.w3.org/2000/svg">
<g clip-path="url(#clip0_109_332)">
<rect width="200" height="52" fill="none" />
<path d="M35.6261 31.1457L51.0763 51.8642H41.5606L30.3055 36.7218L23.4501 44.0805V51.8928H15.6738V15.3746H23.4501V32.9282L40.382 15.2781H50.8906L35.6261 31.1457Z" fill="#007FFF"/>
<path d="M84.8227 51.6928H77.9142L63.3963 31.9352V51.7H57.3064V23.0048H64.2148L78.7176 42.8839V23.0048H84.8227V51.6928Z" fill="#007FFF"/>
<path d="M170.384 35.4109L182.511 51.6928H175.042L166.204 39.7939L160.823 45.5487V51.6821H154.726V23.0298H160.831V36.8112L174.128 22.9512H182.363L170.384 35.4109Z" fill="#007FFF"/>
<path d="M105.351 22.6868C96.1915 22.6868 89.9235 29.3132 89.9235 37.3327C89.9235 45.3522 96.1915 51.9786 105.351 51.9786C114.51 51.9786 120.775 45.3879 120.775 37.3327C120.775 29.2775 114.507 22.6868 105.351 22.6868ZM105.351 46.999C103.635 47.0159 101.951 46.5589 100.508 45.6844C103.608 44.8914 105.935 41.5979 105.935 37.6506C105.935 33.414 103.251 29.9276 99.8067 29.4847C101.381 28.3041 103.34 27.6731 105.351 27.6986C111.092 27.6986 114.67 32.4353 114.67 37.3434C114.67 42.2516 111.092 46.999 105.351 46.999Z" fill="#007FFF"/>
<path d="M138.972 46.9989C137.394 47.0135 135.845 46.5939 134.516 45.7915C138.43 45.2629 141.462 41.8193 141.462 37.6506C141.462 33.1997 138.013 29.5775 133.705 29.4346C135.18 28.2716 137.049 27.6477 138.972 27.6771C140.298 27.685 141.602 27.9917 142.776 28.5715C143.95 29.1512 144.96 29.9873 145.722 31.0099L149.617 26.9591C148.245 25.6087 146.598 24.5331 144.775 23.7966C142.952 23.06 140.99 22.6777 139.006 22.6725C129.847 22.6368 123.984 29.2989 123.984 37.3184C123.984 45.3379 129.847 51.9643 139.006 51.9643C143.668 52.0393 146.923 50.2961 149.617 47.6777L145.449 43.8519C144.723 44.8345 143.754 45.6349 142.625 46.1834C141.496 46.7319 140.242 47.0119 138.972 46.9989Z" fill="#007FFF"/>
<path d="M188.044 39.9368L192.33 17.3107L200 18.5217L195.699 41.2228L188.044 39.9368Z" fill="#007FFF"/>
<path d="M186.88 46.456C186.963 45.9928 187.141 45.5495 187.405 45.1513C187.669 44.7531 188.014 44.408 188.42 44.1356C188.826 43.8632 189.285 43.6689 189.77 43.5638C190.256 43.4587 190.759 43.445 191.25 43.5233L191.435 43.5518C191.927 43.6289 192.398 43.7967 192.821 44.0455C193.244 44.2943 193.61 44.6194 193.9 45.002C194.189 45.3845 194.395 45.8172 194.507 46.2751C194.619 46.733 194.634 47.2072 194.551 47.6705C194.468 48.1348 194.29 48.5792 194.025 48.9781C193.76 49.3771 193.414 49.7227 193.007 49.9953C192.6 50.2678 192.14 50.4618 191.653 50.5662C191.166 50.6705 190.662 50.6831 190.17 50.6033L189.984 50.5747C189.493 50.4964 189.024 50.3277 188.602 50.0783C188.181 49.829 187.815 49.5038 187.527 49.1213C187.239 48.7388 187.034 48.3066 186.923 47.8493C186.812 47.392 186.797 46.9185 186.88 46.456Z" fill="#007FFF"/>
<path d="M31.4398 7.00202L25.4573 9.44116L26.6608 12.0641L32.6433 9.62491L31.4398 7.00202Z" fill="#007FFF"/>
<path d="M19.2239 0.00512422L18.2887 7.48706L21.2995 7.82146L22.2348 0.339529L19.2239 0.00512422Z" fill="#007FFF"/>
<path d="M7.60672 2.16191L5.36475 4.08557L9.75236 8.62923L11.9943 6.70558L7.60672 2.16191Z" fill="#007FFF"/>
<path d="M0.770895 11.4618L-0.000976562 14.2254L8.06873 16.2281L8.84061 13.4645L0.770895 11.4618Z" fill="#007FFF"/>
<path d="M8.13667 19.6619L0.773804 24.7433L2.56476 27.0491L9.92762 21.9677L8.13667 19.6619Z" fill="#007FFF"/>
</g>
<defs>
<clipPath id="clip0_109_332">
<rect width="200" height="52" fill="white"/>
</clipPath>
</defs>
</svg>
