<svg width="290" height="80" viewBox="0 0 290 80" fill="none" xmlns="http://www.w3.org/2000/svg">
<g clip-path="url(#clip0_78_1089)">
<path d="M51.6573 47.9165L74.0601 79.7912H60.2624L43.9425 56.4952L34.0021 67.8162V79.8352H22.7266V23.6533H34.0021V50.6588L58.5535 23.5049H73.7909L51.6573 47.9165Z" fill="#007FFF"/>
<path d="M122.992 79.5273H112.975L91.9241 49.1309V79.5383H83.0938V35.3918H93.111L114.14 65.9751V35.3918H122.992V79.5273Z" fill="#007FFF"/>
<path d="M247.058 54.4782L264.641 79.5273H253.811L240.997 61.2214L233.194 70.0749V79.5109H224.353V35.4304H233.205V56.6325L252.487 35.3094H264.427L247.058 54.4782Z" fill="#007FFF"/>
<path d="M152.758 34.9028C139.477 34.9028 130.389 45.0972 130.389 57.4349C130.389 69.7727 139.477 79.9671 152.758 79.9671C166.04 79.9671 175.123 69.8276 175.123 57.4349C175.123 45.0423 166.034 34.9028 152.758 34.9028ZM152.758 72.3061C150.27 72.3322 147.829 71.6291 145.736 70.2837C150.231 69.0637 153.605 63.9967 153.605 57.9241C153.605 51.4062 149.714 46.0425 144.719 45.361C147.002 43.5448 149.842 42.5739 152.758 42.6132C161.083 42.6132 166.271 49.9004 166.271 57.4514C166.271 65.0024 161.083 72.3061 152.758 72.3061Z" fill="#007FFF"/>
<path d="M201.51 72.3061C199.221 72.3285 196.975 71.683 195.048 70.4486C200.724 69.6352 205.12 64.3375 205.12 57.924C205.12 51.0765 200.12 45.5039 193.872 45.2841C196.011 43.4948 198.722 42.535 201.51 42.5802C203.432 42.5924 205.323 43.0642 207.025 43.9562C208.728 44.8481 210.192 46.1344 211.296 47.7077L216.945 41.4756C214.956 39.3981 212.568 37.7433 209.924 36.6102C207.28 35.477 204.435 34.8889 201.559 34.8808C188.278 34.8259 179.777 45.0752 179.777 57.413C179.777 69.7507 188.278 79.9451 201.559 79.9451C208.318 80.0605 213.038 77.3786 216.945 73.3503L210.901 67.4645C209.849 68.9761 208.443 70.2076 206.806 71.0515C205.169 71.8954 203.351 72.3261 201.51 72.3061Z" fill="#007FFF"/>
<path d="M272.663 61.4412L278.878 26.6318L290 28.4949L283.763 63.4196L272.663 61.4412Z" fill="#007FFF"/>
<path d="M270.977 71.4708C271.096 70.7582 271.354 70.0761 271.737 69.4635C272.12 68.851 272.621 68.32 273.209 67.9009C273.797 67.4818 274.463 67.1829 275.167 67.0213C275.871 66.8596 276.6 66.8384 277.312 66.9589L277.582 67.0028C278.294 67.1214 278.977 67.3795 279.59 67.7623C280.203 68.1451 280.735 68.6452 281.154 69.2338C281.574 69.8224 281.873 70.488 282.035 71.1925C282.197 71.897 282.219 72.6265 282.098 73.3393C281.979 74.0535 281.72 74.7372 281.336 75.351C280.952 75.9647 280.45 76.4965 279.86 76.9158C279.27 77.3351 278.602 77.6336 277.896 77.7941C277.19 77.9546 276.46 77.974 275.746 77.8512L275.477 77.8072C274.765 77.6868 274.085 77.4273 273.473 77.0436C272.862 76.66 272.332 76.1596 271.915 75.5712C271.497 74.9828 271.199 74.3179 271.038 73.6143C270.877 72.9108 270.856 72.1824 270.977 71.4708Z" fill="#007FFF"/>
<path d="M45.5877 10.7724L36.9131 14.5249L38.6582 18.5601L47.3328 14.8076L45.5877 10.7724Z" fill="#007FFF"/>
<path d="M27.8746 0.00788419L26.5186 11.5186L30.8843 12.033L32.2404 0.522352L27.8746 0.00788419Z" fill="#007FFF"/>
<path d="M11.0302 3.32605L7.7793 6.28552L14.1413 13.2758L17.3922 10.3163L11.0302 3.32605Z" fill="#007FFF"/>
<path d="M1.11824 17.6336L-0.000976562 21.8853L11.7001 24.9663L12.8193 20.7147L1.11824 17.6336Z" fill="#007FFF"/>
<path d="M11.7982 30.249L1.12207 38.0667L3.71896 41.614L14.3951 33.7964L11.7982 30.249Z" fill="#007FFF"/>
</g>
<defs>
<clipPath id="clip0_78_1089">
<rect width="290" height="80" fill="white"/>
</clipPath>
</defs>
</svg>
