<svg width="26" height="70" viewBox="0 0 26 70" fill="none" xmlns="http://www.w3.org/2000/svg">
<path d="M2.40039 47.499L10.8601 0L25.9994 2.54218L17.5097 50.1987L2.40039 47.499Z" fill="#007FFF"/>
<path d="M0.105071 61.1845C0.267331 60.2121 0.619251 59.2814 1.14067 58.4455C1.6621 57.6097 2.34282 56.8851 3.14386 56.3132C3.94489 55.7414 4.8505 55.3335 5.80893 55.1129C6.76735 54.8924 7.75978 54.8634 8.72938 55.0278L9.09589 55.0878C10.0664 55.2496 10.9956 55.6018 11.8302 56.1241C12.6647 56.6465 13.3883 57.3289 13.9595 58.132C14.5306 58.9352 14.9381 59.8435 15.1586 60.8048C15.3791 61.7661 15.4082 62.7616 15.2444 63.7342C15.0822 64.7088 14.7296 65.6417 14.2067 66.4792C13.6838 67.3167 13.001 68.0424 12.1975 68.6145C11.394 69.1867 10.4856 69.5939 9.52462 69.813C8.5636 70.032 7.56889 70.0585 6.59764 69.8909L6.23108 69.8309C5.26255 69.6665 4.33583 69.3124 3.50379 68.7889C2.67175 68.2654 1.95072 67.5827 1.38186 66.7798C0.813003 65.9769 0.407455 65.0695 0.188389 64.1095C-0.0306769 63.1494 -0.0590109 62.1555 0.105071 61.1845Z" fill="#007FFF"/>
</svg>
